<?xml version="1.0"?>
<svg
  xmlns="http://www.w3.org/2000/svg"
  xmlns:xlink="http://www.w3.org/1999/xlink" version="1.1"
  preserveAspectRatio="xMinYMin meet"
  viewBox="0 -297 420 297"
  width="100%" height="100%"
>
  <g stroke="#000000" stroke-width="0.1%" fill="none" transform="matrix(1,0,0,-1,0,0)">
    <g stroke="rgb(0, 0, 0)"><g transform="matrix(1 0 0 1 0 0)"><path d="M0,0L420,0L420,297L0,297L0,0" /></g></g>
<g stroke="rgb(0, 0, 0)"><g transform="matrix(1 0 0 1 0 0)"><path d="M415.2,4.8L4.8,4.8L4.8,292.2L415.2,292.2L415.2,4.8" /></g></g>
<g stroke="rgb(0, 0, 0)"><g transform="matrix(1 0 0 1 0 0)"><path d="M21,292.2L21,20.8" /></g></g>
<g stroke="rgb(0, 0, 0)"><g transform="matrix(1 0 0 1 0 0)"><path d="M4.8,33.4L21,33.4" /></g></g>
<g stroke="rgb(0, 0, 0)"><g transform="matrix(1 0 0 1 0 0)"><path d="M4.8,106.1L21,106.1" /></g></g>
<g stroke="rgb(0, 0, 0)"><g transform="matrix(1 0 0 1 0 0)"><path d="M4.8,113.4L21,113.4" /></g></g>
<g stroke="rgb(0, 0, 0)"><g transform="matrix(1 0 0 1 0 0)"><path d="M4.8,187.4L21,187.4" /></g></g>
<g stroke="rgb(0, 0, 0)"><g transform="matrix(1 0 0 1 0 0)"><path d="M1.9,48.5L4.8,48.5" /></g></g>
<g stroke="rgb(0, 0, 0)"><g transform="matrix(1 0 0 1 0 0)"><path d="M1.9,98.5L4.8,98.5" /></g></g>
<g stroke="rgb(0, 0, 0)"><g transform="matrix(1 0 0 1 0 0)"><path d="M0,148.5L4.8,148.5" /></g></g>
<g stroke="rgb(0, 0, 0)"><g transform="matrix(1 0 0 1 0 0)"><path d="M1.9,198.5L4.8,198.5" /></g></g>
<g stroke="rgb(0, 0, 0)"><g transform="matrix(1 0 0 1 0 0)"><path d="M1.9,248.5L4.8,248.5" /></g></g>
<g stroke="rgb(0, 0, 0)"><g transform="matrix(1 0 0 1 0 0)"><path d="M60,292.2L60,297" /></g></g>
<g stroke="rgb(0, 0, 0)"><g transform="matrix(1 0 0 1 0 0)"><path d="M110,292.2L110,297" /></g></g>
<g stroke="rgb(0, 0, 0)"><g transform="matrix(1 0 0 1 0 0)"><path d="M160,292.2L160,297" /></g></g>
<g stroke="rgb(0, 0, 0)"><g transform="matrix(1 0 0 1 0 0)"><path d="M210,292.2L210,297" /></g></g>
<g stroke="rgb(0, 0, 0)"><g transform="matrix(1 0 0 1 0 0)"><path d="M260,292.2L260,297" /></g></g>
<g stroke="rgb(0, 0, 0)"><g transform="matrix(1 0 0 1 0 0)"><path d="M310,292.2L310,297" /></g></g>
<g stroke="rgb(0, 0, 0)"><g transform="matrix(1 0 0 1 0 0)"><path d="M360,292.2L360,297" /></g></g>
<g stroke="rgb(0, 0, 0)"><g transform="matrix(1 0 0 1 0 0)"><path d="M398.6,12.8L398.6,4.8" /></g></g>
<g stroke="rgb(0, 0, 0)"><g transform="matrix(1 0 0 1 0 0)"><path d="M297,12.8L415.2,12.8" /></g></g>
<g stroke="rgb(0, 0, 0)"><g transform="matrix(1 0 0 1 0 0)"><path d="M4.8,8.8L228.4,8.8" /></g></g>
<g stroke="rgb(0, 0, 0)"><g transform="matrix(1 0 0 1 0 0)"><path d="M4.8,12.8L103.9,12.8" /></g></g>
<g stroke="rgb(0, 0, 0)"><g transform="matrix(1 0 0 1 0 0)"><path d="M65.8,4.8L65.8,20.8" /></g></g>
<g stroke="rgb(0, 0, 0)"><g transform="matrix(1 0 0 1 0 0)"><path d="M103.9,4.8L103.9,20.8" /></g></g>
<g stroke="rgb(0, 0, 0)"><g transform="matrix(1 0 0 1 0 0)"><path d="M185.2,4.8L185.2,20.8" /></g></g>
<g stroke="rgb(0, 0, 0)"><g transform="matrix(1 0 0 1 0 0)"><path d="M228.4,4.8L228.4,20.8" /></g></g>
<g stroke="rgb(0, 0, 0)"><g transform="matrix(1 0 0 1 0 0)"><path d="M4.8,20.8L415.2,20.8" /></g></g>
<g stroke="rgb(0, 0, 0)"><g transform="matrix(1 0 0 1 0 0)"><path d="M297,4.8L297,20.8" /></g></g>
<g stroke="rgb(0, 0, 0)"><g transform="matrix(1 0 0 1 0 0)"><path d="M4.8,16.8L103.9,16.8" /></g></g>
<g stroke="rgb(0, 0, 0)"><g transform="matrix(1 0 0 1 0 0)"><path d="M368.1,12.8L368.1,20.8" /></g></g>
<g stroke="rgb(0, 0, 0)"><g transform="matrix(1 0 0 1 0 0)"><path d="M368.1,16.8L415.2,16.8" /></g></g>
<g stroke="rgb(0, 0, 0)"><g transform="matrix(1 0 0 1 0 0)"><path d="M327.5,12.8L327.5,4.8" /></g></g>
<g stroke="rgb(0, 0, 0)"><g transform="matrix(1 0 0 1 0 0)"><path d="M398.6,8.8L415.2,8.8" /></g></g>
<g stroke="rgb(0, 0, 0)"><g transform="matrix(1 0 0 1 0 0)"><path d="M144.5,8.8L144.5,4.8" /></g></g>
<g stroke="rgb(0, 0, 0)"><g transform="matrix(1 0 0 1 0 0)"><path d="M53.4,4.8L53.4,20.8" /></g></g>
<g stroke="rgb(0, 0, 0)"><g transform="matrix(1 0 0 1 0 0)"><path d="M41,4.9L41,20.9" /></g></g>
<g stroke="rgb(0, 0, 0)"><g transform="matrix(1 0 0 1 0 0)"><path d="M78,4.8L78,20.8" /></g></g>
<g stroke="rgb(0, 0, 0)"><g transform="matrix(1 0 0 1 0 0)"><path d="M360,0L360,4.8" /></g></g>
<g stroke="rgb(0, 0, 0)"><g transform="matrix(1 0 0 1 0 0)"><path d="M310,0L310,4.8" /></g></g>
<g stroke="rgb(0, 0, 0)"><g transform="matrix(1 0 0 1 0 0)"><path d="M260,0L260,4.8" /></g></g>
<g stroke="rgb(0, 0, 0)"><g transform="matrix(1 0 0 1 0 0)"><path d="M210,0L210,4.8" /></g></g>
<g stroke="rgb(0, 0, 0)"><g transform="matrix(1 0 0 1 0 0)"><path d="M160,0L160,4.8" /></g></g>
<g stroke="rgb(0, 0, 0)"><g transform="matrix(1 0 0 1 0 0)"><path d="M110,0L110,4.8" /></g></g>
<g stroke="rgb(0, 0, 0)"><g transform="matrix(1 0 0 1 0 0)"><path d="M60,0L60,4.8" /></g></g>
<g stroke="rgb(0, 0, 0)"><g transform="matrix(1 0 0 1 0 0)"><path d="M415.2,248.5L420,248.5" /></g></g>
<g stroke="rgb(0, 0, 0)"><g transform="matrix(1 0 0 1 0 0)"><path d="M415.2,198.5L420,198.5" /></g></g>
<g stroke="rgb(0, 0, 0)"><g transform="matrix(1 0 0 1 0 0)"><path d="M415.2,148.5L419.9,148.5" /></g></g>
<g stroke="rgb(0, 0, 0)"><g transform="matrix(1 0 0 1 0 0)"><path d="M415.2,98.5L420,98.5" /></g></g>
<g stroke="rgb(0, 0, 0)"><g transform="matrix(1 0 0 1 0 0)"><path d="M415.2,48.5L420,48.5" /></g></g>
<g stroke="rgb(0, 0, 0)"><g transform="matrix(1 0 0 1 0 0)"><path d="M21,20.8L21,4.8" /></g></g>
<g stroke="rgb(130, 130, 130)"><g transform="matrix(1 0 0 1 0 0)"><path d="M52,76L384,76" /></g></g>
<g stroke="rgb(130, 130, 130)"><g transform="matrix(1 0 0 1 0 0)"><path d="M50,272L56,272" /></g></g>
<g stroke="rgb(130, 130, 130)"><g transform="matrix(1 0 0 1 0 0)"><path d="M50,268L56,268" /></g></g>
<g stroke="rgb(130, 130, 130)"><g transform="matrix(1 0 0 1 0 0)"><path d="M50,264L56,264" /></g></g>
<g stroke="rgb(130, 130, 130)"><g transform="matrix(1 0 0 1 0 0)"><path d="M50,260L56,260" /></g></g>
<g stroke="rgb(130, 130, 130)"><g transform="matrix(1 0 0 1 0 0)"><path d="M380,272L386,272" /></g></g>
<g stroke="rgb(130, 130, 130)"><g transform="matrix(1 0 0 1 0 0)"><path d="M380,268L386,268" /></g></g>
<g stroke="rgb(130, 130, 130)"><g transform="matrix(1 0 0 1 0 0)"><path d="M380,264L386,264" /></g></g>
<g stroke="rgb(130, 130, 130)"><g transform="matrix(1 0 0 1 0 0)"><path d="M380,260L386,260" /></g></g>
<g stroke="rgb(130, 130, 130)"><g transform="matrix(1 0 0 1 0 0)"><path d="M50,96L56,96" /></g></g>
<g stroke="rgb(130, 130, 130)"><g transform="matrix(1 0 0 1 0 0)"><path d="M380,96L386,96" /></g></g>
<g stroke="rgb(130, 130, 130)"><g transform="matrix(1 0 0 1 0 0)"><path d="M84,280L84,273" /></g></g>
<g stroke="rgb(130, 130, 130)"><g transform="matrix(1 0 0 1 0 0)"><path d="M132,280L132,273" /></g></g>
<g stroke="rgb(130, 130, 130)"><g transform="matrix(1 0 0 1 0 0)"><path d="M184,280L184,273" /></g></g>
<g stroke="rgb(130, 130, 130)"><g transform="matrix(1 0 0 1 0 0)"><path d="M236,280L236,273" /></g></g>
<g stroke="rgb(130, 130, 130)"><g transform="matrix(1 0 0 1 0 0)"><path d="M284,280L284,273" /></g></g>
<g stroke="rgb(130, 130, 130)"><g transform="matrix(1 0 0 1 0 0)"><path d="M332,280L332,273" /></g></g>
<g stroke="rgb(130, 130, 130)"><g transform="matrix(1 0 0 1 0 0)"><path d="M52,274L52,258" /></g></g>
<g stroke="rgb(130, 130, 130)"><g transform="matrix(1 0 0 1 0 0)"><path d="M384,274L384,258" /></g></g>
<g stroke="rgb(130, 130, 130)"><g transform="matrix(1 0 0 1 0 0)"><path d="M52,110L52,94" /></g></g>
<g stroke="rgb(130, 130, 130)"><g transform="matrix(1 0 0 1 0 0)"><path d="M384,110L384,94" /></g></g>
<g stroke="rgb(130, 130, 130)"><g transform="matrix(1 0 0 1 0 0)"><path d="M399.2,75.8L399.2,231.2" /></g></g>
<g stroke="rgb(130, 130, 130)"><g transform="matrix(1 0 0 1 0 0)"><path d="M383.2,75.8L383.2,20.8" /></g></g>
<g stroke="rgb(130, 130, 130)"><g transform="matrix(1 0 0 1 0 0)"><path d="M399.2,75.8L383.2,75.8" /></g></g>
<g stroke="rgb(130, 130, 130)"><g transform="matrix(1 0 0 1 0 0)"><path d="M383.2,231.2L383.2,292.2" /></g></g>
<g stroke="rgb(130, 130, 130)"><g transform="matrix(1 0 0 1 0 0)"><path d="M383.2,231.2L399.2,231.2" /></g></g>
<g stroke="rgb(79, 0, 19)"><g transform="matrix(1 0 0 1 132 184)"><g transform="matrix(1 0 0 1 0 0)"><path d="M0,0L0,1.6" /></g></g></g>
<g stroke="rgb(79, 0, 19)"><g transform="matrix(1 0 0 1 132 184)"><g transform="matrix(1 0 0 1 0 0)"><path d="M-7.631373006750072,5.2L-8.368626993240104,5.2L-8,8L-7.631373006750072,5.2L-7.631373006750072,5.2" /></g></g></g>
<g stroke="rgb(79, 0, 19)"><g transform="matrix(1 0 0 1 132 184)"><g transform="matrix(1 0 0 1 0 0)"><path d="M4,8L-12,8" /></g></g></g>
<g stroke="rgb(79, 0, 19)"><g transform="matrix(1 0 0 1 132 184)"><g transform="matrix(1 0 0 1 0 0)"><path d="M4,0L-19,0" /></g></g></g>
<g stroke="rgb(79, 0, 19)"><g transform="matrix(1 0 0 1 132 184)"><g transform="matrix(1 0 0 1 0 0)"><path d="M4,0L4,8" /></g></g></g>
<g stroke="rgb(79, 0, 19)"><g transform="matrix(1 0 0 1 132 184)"><g transform="matrix(1 0 0 1 0 0)"><path d="M-4,8L-4,0" /></g></g></g>
<g stroke="rgb(79, 0, 19)"><g transform="matrix(1 0 0 1 132 184)"><g transform="matrix(1 0 0 1 0 0)"><path d="M0,6.4L0,8" /></g></g></g>
<g stroke="rgb(79, 0, 19)"><g transform="matrix(1 0 0 1 132 184)"><g transform="matrix(1 0 0 1 0 0)"><path d="M-0.8600607351199869,6.4L0.739939264880013,6.4" /></g></g></g>
<g stroke="rgb(79, 0, 19)"><g transform="matrix(1 0 0 1 132 184)"><g transform="matrix(1 0 0 1 0 0)"><path d="M-0.8600607351199869,1.6L0.739939264880013,1.6" /></g></g></g>
<g stroke="rgb(79, 0, 19)"><g transform="matrix(1 0 0 1 132 184)"><g transform="matrix(1 0 0 1 0 0)"><path d="M-12,8L-12,0" /></g></g></g>
<g stroke="rgb(79, 0, 19)"><g transform="matrix(1 0 0 1 132 184)"><g transform="matrix(1 0 0 1 0 0)"><path d="M-8,6L-8,0" /></g></g></g>
<g stroke="rgb(79, 0, 19)"><g transform="matrix(1 0 0 1 132 184)"><g transform="matrix(1 0 0 1 0 0)"><path d="M8.642401624059858,3.874321269870052L8.287187078900024,5.2" /></g></g></g>
<g stroke="rgb(79, 0, 19)"><g transform="matrix(1 0 0 1 132 184)"><g transform="matrix(1 0 0 1 0 0)"><path d="M8.287187078900024,5.2L7.429749663119947,2" /></g></g></g>
<g stroke="rgb(79, 0, 19)"><g transform="matrix(1 0 0 1 132 184)"><g transform="matrix(1 0 0 1 0 0)"><path d="M7.429749663119947,2L6.572312247339869,5.2" /></g></g></g>
<g stroke="rgb(79, 0, 19)"><g transform="matrix(1 0 0 1 132 184)"><g transform="matrix(1 0 0 1 0 0)"><path d="M6.572312247339869,5.2L5.714874831560155,2" /></g></g></g>
<g stroke="rgb(79, 0, 19)"><g transform="matrix(1 0 0 1 132 184)"><g transform="matrix(1 0 0 1 0 0)"><path d="M5.714874831560155,2L4.857437415780078,5.2" /></g></g></g>
<g stroke="rgb(79, 0, 19)"><g transform="matrix(1 0 0 1 132 184)"><g transform="matrix(1 0 0 1 0 0)"><path d="M4.857437415780078,5.2L4,2" /></g></g></g>
<g stroke="rgb(79, 0, 19)"><g transform="matrix(1 0 0 1 132 184)"><g transform="matrix(1 0 0 1 0 0)"><path d="M-19,0L-19,4" /></g></g></g>
<g stroke="rgb(79, 0, 19)"><g transform="matrix(1 0 0 1 132 184)"><g transform="matrix(1 0 0 1 0 0)"><path d="M-19,4L-12,4" /></g></g></g>
<g stroke="rgb(79, 0, 19)"><g transform="matrix(1 0 0 1 132 184)"><g transform="matrix(1 0 0 1 0 0)"><path d="M-17.19321292906006,0L-14,4" /></g></g></g>
<g stroke="rgb(79, 0, 19)"><g transform="matrix(1 0 0 1 92 184)"><g transform="matrix(1 0 0 1 0 0)"><path d="M0,0L0,1.6" /></g></g></g>
<g stroke="rgb(79, 0, 19)"><g transform="matrix(1 0 0 1 92 184)"><g transform="matrix(1 0 0 1 0 0)"><path d="M-7.631373006750072,5.2L-8.368626993240104,5.2L-8,8L-7.631373006750072,5.2L-7.631373006750072,5.2" /></g></g></g>
<g stroke="rgb(79, 0, 19)"><g transform="matrix(1 0 0 1 92 184)"><g transform="matrix(1 0 0 1 0 0)"><path d="M4,8L-12,8" /></g></g></g>
<g stroke="rgb(79, 0, 19)"><g transform="matrix(1 0 0 1 92 184)"><g transform="matrix(1 0 0 1 0 0)"><path d="M4,0L-19,0" /></g></g></g>
<g stroke="rgb(79, 0, 19)"><g transform="matrix(1 0 0 1 92 184)"><g transform="matrix(1 0 0 1 0 0)"><path d="M4,0L4,8" /></g></g></g>
<g stroke="rgb(79, 0, 19)"><g transform="matrix(1 0 0 1 92 184)"><g transform="matrix(1 0 0 1 0 0)"><path d="M-4,8L-4,0" /></g></g></g>
<g stroke="rgb(79, 0, 19)"><g transform="matrix(1 0 0 1 92 184)"><g transform="matrix(1 0 0 1 0 0)"><path d="M0,6.4L0,8" /></g></g></g>
<g stroke="rgb(79, 0, 19)"><g transform="matrix(1 0 0 1 92 184)"><g transform="matrix(1 0 0 1 0 0)"><path d="M-0.8600607351199869,6.4L0.739939264880013,6.4" /></g></g></g>
<g stroke="rgb(79, 0, 19)"><g transform="matrix(1 0 0 1 92 184)"><g transform="matrix(1 0 0 1 0 0)"><path d="M-0.8600607351199869,1.6L0.739939264880013,1.6" /></g></g></g>
<g stroke="rgb(79, 0, 19)"><g transform="matrix(1 0 0 1 92 184)"><g transform="matrix(1 0 0 1 0 0)"><path d="M-12,8L-12,0" /></g></g></g>
<g stroke="rgb(79, 0, 19)"><g transform="matrix(1 0 0 1 92 184)"><g transform="matrix(1 0 0 1 0 0)"><path d="M-8,6L-8,0" /></g></g></g>
<g stroke="rgb(79, 0, 19)"><g transform="matrix(1 0 0 1 92 184)"><g transform="matrix(1 0 0 1 0 0)"><path d="M8.642401624059858,3.874321269870052L8.287187078900024,5.2" /></g></g></g>
<g stroke="rgb(79, 0, 19)"><g transform="matrix(1 0 0 1 92 184)"><g transform="matrix(1 0 0 1 0 0)"><path d="M8.287187078900024,5.2L7.429749663119947,2" /></g></g></g>
<g stroke="rgb(79, 0, 19)"><g transform="matrix(1 0 0 1 92 184)"><g transform="matrix(1 0 0 1 0 0)"><path d="M7.429749663119947,2L6.572312247339869,5.2" /></g></g></g>
<g stroke="rgb(79, 0, 19)"><g transform="matrix(1 0 0 1 92 184)"><g transform="matrix(1 0 0 1 0 0)"><path d="M6.572312247339869,5.2L5.714874831560155,2" /></g></g></g>
<g stroke="rgb(79, 0, 19)"><g transform="matrix(1 0 0 1 92 184)"><g transform="matrix(1 0 0 1 0 0)"><path d="M5.714874831560155,2L4.857437415780078,5.2" /></g></g></g>
<g stroke="rgb(79, 0, 19)"><g transform="matrix(1 0 0 1 92 184)"><g transform="matrix(1 0 0 1 0 0)"><path d="M4.857437415780078,5.2L4,2" /></g></g></g>
<g stroke="rgb(79, 0, 19)"><g transform="matrix(1 0 0 1 92 184)"><g transform="matrix(1 0 0 1 0 0)"><path d="M-19,0L-19,4" /></g></g></g>
<g stroke="rgb(79, 0, 19)"><g transform="matrix(1 0 0 1 92 184)"><g transform="matrix(1 0 0 1 0 0)"><path d="M-19,4L-12,4" /></g></g></g>
<g stroke="rgb(79, 0, 19)"><g transform="matrix(1 0 0 1 92 184)"><g transform="matrix(1 0 0 1 0 0)"><path d="M-17.19321292906006,0L-14,4" /></g></g></g>
<g stroke="rgb(79, 0, 19)"><g transform="matrix(1 0 0 1 88 172)"><g transform="matrix(1 0 0 1 0 0)"><path d="M0,0L0,1.6" /></g></g></g>
<g stroke="rgb(79, 0, 19)"><g transform="matrix(1 0 0 1 88 172)"><g transform="matrix(1 0 0 1 0 0)"><path d="M-7.631373006750072,5.2L-8.368626993240104,5.2L-8,8L-7.631373006750072,5.2L-7.631373006750072,5.2" /></g></g></g>
<g stroke="rgb(79, 0, 19)"><g transform="matrix(1 0 0 1 88 172)"><g transform="matrix(1 0 0 1 0 0)"><path d="M4,8L-12,8" /></g></g></g>
<g stroke="rgb(79, 0, 19)"><g transform="matrix(1 0 0 1 88 172)"><g transform="matrix(1 0 0 1 0 0)"><path d="M4,0L-19,0" /></g></g></g>
<g stroke="rgb(79, 0, 19)"><g transform="matrix(1 0 0 1 88 172)"><g transform="matrix(1 0 0 1 0 0)"><path d="M4,0L4,8" /></g></g></g>
<g stroke="rgb(79, 0, 19)"><g transform="matrix(1 0 0 1 88 172)"><g transform="matrix(1 0 0 1 0 0)"><path d="M-4,8L-4,0" /></g></g></g>
<g stroke="rgb(79, 0, 19)"><g transform="matrix(1 0 0 1 88 172)"><g transform="matrix(1 0 0 1 0 0)"><path d="M0,6.4L0,8" /></g></g></g>
<g stroke="rgb(79, 0, 19)"><g transform="matrix(1 0 0 1 88 172)"><g transform="matrix(1 0 0 1 0 0)"><path d="M-0.8600607351199869,6.4L0.739939264880013,6.4" /></g></g></g>
<g stroke="rgb(79, 0, 19)"><g transform="matrix(1 0 0 1 88 172)"><g transform="matrix(1 0 0 1 0 0)"><path d="M-0.8600607351199869,1.6L0.739939264880013,1.6" /></g></g></g>
<g stroke="rgb(79, 0, 19)"><g transform="matrix(1 0 0 1 88 172)"><g transform="matrix(1 0 0 1 0 0)"><path d="M-12,8L-12,0" /></g></g></g>
<g stroke="rgb(79, 0, 19)"><g transform="matrix(1 0 0 1 88 172)"><g transform="matrix(1 0 0 1 0 0)"><path d="M-8,6L-8,0" /></g></g></g>
<g stroke="rgb(79, 0, 19)"><g transform="matrix(1 0 0 1 88 172)"><g transform="matrix(1 0 0 1 0 0)"><path d="M8.642401624059858,3.874321269870052L8.287187078900024,5.2" /></g></g></g>
<g stroke="rgb(79, 0, 19)"><g transform="matrix(1 0 0 1 88 172)"><g transform="matrix(1 0 0 1 0 0)"><path d="M8.287187078900024,5.2L7.429749663119947,2" /></g></g></g>
<g stroke="rgb(79, 0, 19)"><g transform="matrix(1 0 0 1 88 172)"><g transform="matrix(1 0 0 1 0 0)"><path d="M7.429749663119947,2L6.572312247339869,5.2" /></g></g></g>
<g stroke="rgb(79, 0, 19)"><g transform="matrix(1 0 0 1 88 172)"><g transform="matrix(1 0 0 1 0 0)"><path d="M6.572312247339869,5.2L5.714874831560155,2" /></g></g></g>
<g stroke="rgb(79, 0, 19)"><g transform="matrix(1 0 0 1 88 172)"><g transform="matrix(1 0 0 1 0 0)"><path d="M5.714874831560155,2L4.857437415780078,5.2" /></g></g></g>
<g stroke="rgb(79, 0, 19)"><g transform="matrix(1 0 0 1 88 172)"><g transform="matrix(1 0 0 1 0 0)"><path d="M4.857437415780078,5.2L4,2" /></g></g></g>
<g stroke="rgb(79, 0, 19)"><g transform="matrix(1 0 0 1 88 172)"><g transform="matrix(1 0 0 1 0 0)"><path d="M-19,0L-19,4" /></g></g></g>
<g stroke="rgb(79, 0, 19)"><g transform="matrix(1 0 0 1 88 172)"><g transform="matrix(1 0 0 1 0 0)"><path d="M-19,4L-12,4" /></g></g></g>
<g stroke="rgb(79, 0, 19)"><g transform="matrix(1 0 0 1 88 172)"><g transform="matrix(1 0 0 1 0 0)"><path d="M-17.19321292906006,0L-14,4" /></g></g></g>
  </g>
</svg>